<svg width="49" height="48" viewBox="0 0 49 48" fill="none" xmlns="http://www.w3.org/2000/svg">
<path fill-rule="evenodd" clip-rule="evenodd" d="M27.502 16V17H28.502H38.502V36C38.502 37.9422 38.4977 39.1976 38.3733 40.1226C38.2567 40.9901 38.0684 41.262 37.9162 41.4142C37.7639 41.5665 37.492 41.7548 36.6245 41.8714C35.6995 41.9958 34.4441 42 32.502 42H16.502C14.5598 42 13.3044 41.9958 12.3794 41.8714C11.5119 41.7548 11.24 41.5665 11.0877 41.4142C10.9355 41.262 10.7472 40.9901 10.6306 40.1226C10.5062 39.1976 10.502 37.9422 10.502 36V34H8.50195V36C8.50195 39.7712 8.50195 41.6569 9.67353 42.8284C10.8451 44 12.7307 44 16.502 44H32.502C36.2732 44 38.1588 44 39.3304 42.8284C40.502 41.6569 40.502 39.7712 40.502 36V17V16L39.502 15L29.502 5L28.502 4H27.502H16.502C12.7307 4 10.8451 4 9.67353 5.17157C8.50195 6.34315 8.50195 8.22876 8.50195 12V22H10.502V12C10.502 10.0578 10.5062 8.80242 10.6306 7.87741C10.7472 7.00993 10.9355 6.73803 11.0877 6.58579C11.24 6.43354 11.5119 6.24524 12.3794 6.12861C13.3044 6.00425 14.5598 6 16.502 6H27.502V16ZM29.502 7.82843L36.6735 15H29.502V7.82843Z" fill="#5AA1EC"/>
<rect width="18.6" height="9.6" transform="translate(4.70117 22.8008)" fill="#D6E7FA"/>
<path d="M19.6123 28.291H20.6377C20.624 28.5879 20.5439 28.8496 20.3975 29.0762C20.251 29.3027 20.0479 29.4795 19.7881 29.6064C19.5303 29.7314 19.2256 29.7939 18.874 29.7939C18.5889 29.7939 18.334 29.7461 18.1094 29.6504C17.8867 29.5547 17.6973 29.417 17.541 29.2373C17.3867 29.0576 17.2686 28.8398 17.1865 28.584C17.1064 28.3281 17.0664 28.04 17.0664 27.7197V27.4883C17.0664 27.168 17.1084 26.8799 17.1924 26.624C17.2783 26.3662 17.3994 26.1475 17.5557 25.9678C17.7139 25.7861 17.9033 25.6475 18.124 25.5518C18.3447 25.4561 18.5898 25.4082 18.8594 25.4082C19.2305 25.4082 19.5439 25.4746 19.7998 25.6074C20.0557 25.7402 20.2539 25.9229 20.3945 26.1553C20.5352 26.3857 20.6182 26.6484 20.6436 26.9434H19.6182C19.6143 26.7832 19.5869 26.6494 19.5361 26.542C19.4854 26.4326 19.4053 26.3506 19.2959 26.2959C19.1865 26.2412 19.041 26.2139 18.8594 26.2139C18.7324 26.2139 18.6221 26.2373 18.5283 26.2842C18.4346 26.3311 18.3564 26.4053 18.2939 26.5068C18.2314 26.6084 18.1846 26.7402 18.1533 26.9023C18.124 27.0625 18.1094 27.2559 18.1094 27.4824V27.7197C18.1094 27.9463 18.123 28.1396 18.1504 28.2998C18.1777 28.46 18.2217 28.5908 18.2822 28.6924C18.3428 28.7939 18.4209 28.8691 18.5166 28.918C18.6143 28.9648 18.7334 28.9883 18.874 28.9883C19.0303 28.9883 19.1621 28.9639 19.2695 28.915C19.377 28.8643 19.46 28.7881 19.5186 28.6865C19.5771 28.583 19.6084 28.4512 19.6123 28.291Z" fill="#5AA1EC"/>
<path d="M16.6533 27.5166V27.6895C16.6533 28.0156 16.6074 28.3086 16.5156 28.5684C16.4258 28.8262 16.2979 29.0469 16.1318 29.2305C15.9658 29.4121 15.7695 29.5518 15.543 29.6494C15.3164 29.7451 15.0664 29.793 14.793 29.793C14.5176 29.793 14.2656 29.7451 14.0371 29.6494C13.8105 29.5518 13.6133 29.4121 13.4453 29.2305C13.2793 29.0469 13.1504 28.8262 13.0586 28.5684C12.9688 28.3086 12.9238 28.0156 12.9238 27.6895V27.5166C12.9238 27.1904 12.9688 26.8975 13.0586 26.6377C13.1504 26.3779 13.2783 26.1572 13.4424 25.9756C13.6084 25.792 13.8047 25.6523 14.0312 25.5566C14.2598 25.459 14.5117 25.4102 14.7871 25.4102C15.0605 25.4102 15.3105 25.459 15.5371 25.5566C15.7656 25.6523 15.9629 25.792 16.1289 25.9756C16.2949 26.1572 16.4238 26.3779 16.5156 26.6377C16.6074 26.8975 16.6533 27.1904 16.6533 27.5166ZM15.6104 27.6895V27.5107C15.6104 27.2998 15.5918 27.1143 15.5547 26.9541C15.5195 26.792 15.4668 26.6562 15.3965 26.5469C15.3262 26.4375 15.2393 26.3555 15.1357 26.3008C15.0342 26.2441 14.918 26.2158 14.7871 26.2158C14.6504 26.2158 14.5312 26.2441 14.4297 26.3008C14.3281 26.3555 14.2432 26.4375 14.1748 26.5469C14.1064 26.6562 14.0547 26.792 14.0195 26.9541C13.9863 27.1143 13.9697 27.2998 13.9697 27.5107V27.6895C13.9697 27.8984 13.9863 28.084 14.0195 28.2461C14.0547 28.4062 14.1064 28.542 14.1748 28.6533C14.2451 28.7646 14.3311 28.8486 14.4326 28.9053C14.5361 28.9619 14.6562 28.9902 14.793 28.9902C14.9238 28.9902 15.04 28.9619 15.1416 28.9053C15.2432 28.8486 15.3281 28.7646 15.3965 28.6533C15.4668 28.542 15.5195 28.4062 15.5547 28.2461C15.5918 28.084 15.6104 27.8984 15.6104 27.6895Z" fill="#5AA1EC"/>
<path d="M10.5439 29.7344H9.59766L9.60352 28.9434H10.5439C10.7393 28.9434 10.9043 28.8965 11.0391 28.8027C11.1758 28.709 11.2793 28.5693 11.3496 28.3838C11.4219 28.1963 11.458 27.9658 11.458 27.6924V27.5078C11.458 27.3027 11.4375 27.123 11.3965 26.9687C11.3574 26.8125 11.2988 26.6826 11.2207 26.5791C11.1426 26.4736 11.0449 26.3945 10.9277 26.3418C10.8125 26.2891 10.6797 26.2627 10.5293 26.2627H9.58008V25.4688H10.5293C10.8184 25.4688 11.083 25.5186 11.3232 25.6182C11.5654 25.7158 11.7744 25.8564 11.9502 26.04C12.1279 26.2217 12.2646 26.4375 12.3604 26.6875C12.458 26.9355 12.5068 27.2109 12.5068 27.5137V27.6924C12.5068 27.9932 12.458 28.2686 12.3604 28.5186C12.2646 28.7686 12.1289 28.9844 11.9531 29.166C11.7773 29.3477 11.5693 29.4883 11.3291 29.5879C11.0908 29.6855 10.8291 29.7344 10.5439 29.7344ZM10.1865 25.4688V29.7344H9.1582V25.4688H10.1865Z" fill="#5AA1EC"/>
<path d="M7.35938 29.2725C7.35938 29.1318 7.41016 29.0146 7.51172 28.9209C7.61328 28.8252 7.74414 28.7773 7.9043 28.7773C8.06641 28.7773 8.19727 28.8252 8.29687 28.9209C8.39844 29.0146 8.44922 29.1318 8.44922 29.2725C8.44922 29.4131 8.39844 29.5313 8.29687 29.627C8.19727 29.7207 8.06641 29.7676 7.9043 29.7676C7.74414 29.7676 7.61328 29.7207 7.51172 29.627C7.41016 29.5313 7.35938 29.4131 7.35938 29.2725Z" fill="#5AA1EC"/>
</svg>
