<svg width="22" height="22" viewBox="0 0 22 22" fill="none" xmlns="http://www.w3.org/2000/svg">
<path d="M20.5171 9.59374L14.5696 7.43187L12.4077 1.48437C12.3012 1.1973 12.1093 0.949725 11.8579 0.774892C11.6065 0.600059 11.3077 0.506348 11.0015 0.506348C10.6953 0.506348 10.3964 0.600059 10.145 0.774892C9.89362 0.949725 9.70176 1.1973 9.59521 1.48437L7.43333 7.43187L1.48583 9.59374C1.19877 9.7003 0.95119 9.89215 0.776357 10.1435C0.601524 10.3949 0.507812 10.6938 0.507812 11C0.507812 11.3062 0.601524 11.6051 0.776357 11.8565C0.95119 12.1078 1.19877 12.2997 1.48583 12.4062L7.43333 14.5691L9.59521 20.5156C9.70176 20.8027 9.89362 21.0503 10.145 21.2251C10.3964 21.3999 10.6953 21.4936 11.0015 21.4936C11.3077 21.4936 11.6065 21.3999 11.8579 21.2251C12.1093 21.0503 12.3012 20.8027 12.4077 20.5156L14.5705 14.5681L20.5171 12.4062C20.8041 12.2997 21.0517 12.1078 21.2266 11.8565C21.4014 11.6051 21.4951 11.3062 21.4951 11C21.4951 10.6938 21.4014 10.3949 21.2266 10.1435C21.0517 9.89215 20.8041 9.7003 20.5171 9.59374ZM13.7277 13.2781C13.6248 13.3156 13.5314 13.3751 13.454 13.4525C13.3766 13.5299 13.317 13.6234 13.2796 13.7262L11.0015 19.9906L8.72333 13.7262C8.68587 13.6234 8.62635 13.5299 8.54893 13.4525C8.47151 13.3751 8.37808 13.3156 8.27521 13.2781L2.01083 11L8.27521 8.72187C8.37808 8.68441 8.47151 8.62488 8.54893 8.54746C8.62635 8.47005 8.68587 8.37662 8.72333 8.27374L11.0015 2.00937L13.2796 8.27374C13.317 8.37662 13.3766 8.47005 13.454 8.54746C13.5314 8.62488 13.6248 8.68441 13.7277 8.72187L19.9921 11L13.7277 13.2781Z" fill="#61378A"/>
</svg>
