<svg width="262" height="259" viewBox="0 0 262 259" fill="none" xmlns="http://www.w3.org/2000/svg">
<g clip-path="url(#clip0_1310_4168)">
<path fill-rule="evenodd" clip-rule="evenodd" d="M130.892 78.79L134.732 76.96C136.692 76.03 139.052 76.87 139.982 78.82L218.282 243.18C219.212 245.14 218.372 247.5 216.422 248.43L212.582 250.26C210.622 251.19 208.262 250.35 207.332 248.4L129.032 84.04C128.102 82.08 128.942 79.72 130.892 78.79Z" fill="#B0916D"/>
<path fill-rule="evenodd" clip-rule="evenodd" d="M75.7188 258.35L130.559 127.99L193.939 132.95L165.929 205.26L75.7188 258.35Z" fill="#F06022"/>
<path fill-rule="evenodd" clip-rule="evenodd" d="M0 74.6001L130.7 128.62L126.13 192.03L53.65 164.47L0 74.6001Z" fill="#5D3794"/>
<path fill-rule="evenodd" clip-rule="evenodd" d="M126.128 192.03L53.6484 164.47L130.698 128.62L126.128 192.03Z" fill="#693E97"/>
<path fill-rule="evenodd" clip-rule="evenodd" d="M187.661 0L132.821 130.36L69.4414 125.39L97.4414 53.09L187.661 0Z" fill="#80B147"/>
<path fill-rule="evenodd" clip-rule="evenodd" d="M69.4414 125.39L97.4414 53.0901L132.821 130.36L69.4414 125.39Z" fill="#84C44A"/>
<path fill-rule="evenodd" clip-rule="evenodd" d="M261.309 186.56L130.609 132.54L135.179 69.1299L207.659 96.6799L261.309 186.56Z" fill="#E8BA19"/>
<path fill-rule="evenodd" clip-rule="evenodd" d="M135.179 69.1299L207.659 96.6799L130.609 132.54L135.179 69.1299Z" fill="#F0C721"/>
<path fill-rule="evenodd" clip-rule="evenodd" d="M193.939 132.95L165.929 205.26L130.559 127.99L193.939 132.95Z" fill="#F37820"/>
<path fill-rule="evenodd" clip-rule="evenodd" d="M126.181 117.91C132.911 115.21 140.551 118.48 143.251 125.21C145.951 131.94 142.681 139.58 135.951 142.28C129.221 144.98 121.581 141.71 118.881 134.98C116.181 128.25 119.451 120.61 126.181 117.91Z" fill="white"/>
</g>
<defs>
<clipPath id="clip0_1310_4168">
<rect width="261.31" height="258.35" fill="white"/>
</clipPath>
</defs>
</svg>
