<svg width="169" height="51" viewBox="0 0 169 51" fill="none" xmlns="http://www.w3.org/2000/svg">
<path d="M22.9113 21.91H14.3053L8.19525 14.864V21.91H1.46125V1.63H8.19525V8.156L13.6813 1.63H22.2093L13.3952 11.224L22.9113 21.91ZM30.9341 21.91H24.3041V1.63H30.9341V21.91ZM53.0221 11.796C53.0221 14.8293 51.8694 17.2993 49.5641 19.206C47.3974 21.0087 44.7714 21.91 41.6861 21.91H33.3921V1.63H41.6861C44.7541 1.63 47.3801 2.54867 49.5641 4.386C51.8694 6.31 53.0221 8.78 53.0221 11.796ZM45.9501 11.796C45.9501 8.69333 44.0434 7.142 40.2301 7.142V16.476C42.1021 16.5107 43.4801 16.216 44.3641 15.592C45.4214 14.864 45.9501 13.5987 45.9501 11.796ZM69.8878 14.942C69.8878 20.0033 67.0018 22.534 61.2298 22.534C57.6938 22.534 54.9031 21.65 52.8578 19.882L55.8478 14.63C57.4598 16.2767 59.1844 17.1 61.0218 17.1C61.4551 17.1 61.8624 16.996 62.2438 16.788C62.7118 16.5453 62.9458 16.2247 62.9458 15.826C62.9458 15.2713 62.1658 14.7687 60.6058 14.318C58.3698 13.6593 56.9051 13.122 56.2118 12.706C54.6518 11.7527 53.8718 10.3833 53.8718 8.598C53.8718 3.554 56.5584 1.032 61.9318 1.032C64.4451 1.032 66.9151 1.67333 69.3418 2.956L66.5078 8.052C64.9824 6.97733 63.6824 6.44 62.6078 6.44C61.5331 6.44 60.9958 6.73467 60.9958 7.324C60.9958 7.82667 61.7584 8.30333 63.2838 8.754C65.3811 9.378 66.8111 9.95 67.5738 10.47C69.1164 11.51 69.8878 13.0007 69.8878 14.942ZM96.5026 21.91H83.1906V1.682H96.5026V7.142H89.9766V9.144H96.0866V14.604L89.9766 14.578V16.58H96.5026V21.91ZM122.797 21.91H114.607L110.161 16.242L105.767 21.91H97.5512L106.209 11.068L99.1112 1.63H107.431L110.161 5.946L112.943 1.63H121.237L114.165 11.068L122.797 21.91ZM141.042 8.52C141.042 11.5013 140.054 13.512 138.078 14.552C136.656 15.2973 134.169 15.6353 130.616 15.566V21.91H123.804V1.63H133.554C135.72 1.63 137.497 2.228 138.884 3.424C140.322 4.68933 141.042 6.388 141.042 8.52ZM134.048 8.546C134.048 7.73133 133.64 7.22 132.826 7.012C132.548 6.94267 131.786 6.89933 130.538 6.882V10.366H131.942C133.346 10.366 134.048 9.75933 134.048 8.546ZM166.049 11.822C166.049 15.1153 164.845 17.776 162.435 19.804C160.182 21.6933 157.374 22.638 154.011 22.638C150.666 22.638 147.849 21.6847 145.561 19.778C143.135 17.75 141.921 15.098 141.921 11.822C141.921 8.494 143.126 5.82467 145.535 3.814C147.789 1.942 150.614 0.997332 154.011 0.979999V0.953999C157.426 0.953999 160.251 1.89867 162.487 3.788C164.862 5.79867 166.049 8.47667 166.049 11.822ZM159.211 11.744C159.211 10.3053 158.691 9.144 157.651 8.26C156.681 7.428 155.459 7.012 153.985 7.012C152.477 7.012 151.238 7.41933 150.267 8.234C149.227 9.10067 148.707 10.2707 148.707 11.744C148.707 13.1827 149.236 14.344 150.293 15.228C151.281 16.0427 152.512 16.45 153.985 16.45C155.424 16.45 156.655 16.0253 157.677 15.176C158.7 14.3093 159.211 13.1653 159.211 11.744Z" fill="#5D3794"/>
<path d="M0.34325 29.2H12.7032V32.368H8.16725V46H4.85525V32.368H0.34325V29.2ZM20.3362 46.336C18.4642 46.336 16.9282 45.808 15.7282 44.752C14.5282 43.696 13.9282 42.28 13.9282 40.504V29.2H17.2162V40.24C17.2162 41.136 17.4722 41.84 17.9842 42.352C18.5122 42.848 19.2962 43.096 20.3362 43.096C21.3762 43.096 22.1522 42.848 22.6642 42.352C23.1922 41.84 23.4562 41.136 23.4562 40.24V29.2H26.7682V40.504C26.7682 42.28 26.1682 43.696 24.9682 44.752C23.7682 45.808 22.2242 46.336 20.3362 46.336ZM42.0639 46H38.4879L35.1039 40.168H32.5839V46H29.2719V29.2H35.9919C37.5439 29.2 38.8639 29.744 39.9519 30.832C41.0399 31.92 41.5839 33.232 41.5839 34.768C41.5839 35.808 41.2879 36.776 40.6959 37.672C40.1039 38.552 39.3199 39.216 38.3439 39.664L42.0639 46ZM35.9919 32.296H32.5839V37.264H35.9919C36.6159 37.264 37.1519 37.024 37.5999 36.544C38.0479 36.048 38.2719 35.456 38.2719 34.768C38.2719 34.08 38.0479 33.496 37.5999 33.016C37.1519 32.536 36.6159 32.296 35.9919 32.296ZM50.2061 37.36L56.6621 46H52.8461L46.8461 38.128V46H43.5341V29.2H46.8461V36.616L52.6061 29.2H56.4221L50.2061 37.36ZM70.8517 29.2H74.2597V46H70.9717V35.104L66.2437 42.904H65.8597L61.1317 35.128V46H57.8197V29.2H61.2277L66.0517 37.144L70.8517 29.2ZM80.222 39.064V42.832H87.302V46H76.91V29.2H87.182V32.368H80.222V35.944H86.582V39.064H80.222ZM98.8766 39.448V29.2H102.189V46H99.6686L92.4686 35.728V46H89.1566V29.2H91.6766L98.8766 39.448ZM104.825 46V29.2H108.137V46H104.825ZM116.245 46.336C114.597 46.336 113.205 45.968 112.069 45.232C110.933 44.496 110.125 43.48 109.645 42.184L112.477 40.528C113.133 42.24 114.421 43.096 116.341 43.096C117.237 43.096 117.909 42.936 118.357 42.616C118.805 42.296 119.029 41.864 119.029 41.32C119.029 40.728 118.765 40.272 118.237 39.952C117.709 39.616 116.765 39.256 115.405 38.872C113.933 38.424 112.773 37.904 111.925 37.312C110.869 36.528 110.341 35.376 110.341 33.856C110.341 32.32 110.877 31.112 111.949 30.232C113.021 29.32 114.325 28.864 115.861 28.864C117.205 28.864 118.397 29.192 119.437 29.848C120.477 30.504 121.285 31.432 121.861 32.632L119.077 34.24C118.405 32.8 117.333 32.08 115.861 32.08C115.189 32.08 114.653 32.24 114.253 32.56C113.853 32.864 113.653 33.264 113.653 33.76C113.653 34.288 113.869 34.72 114.301 35.056C114.781 35.392 115.629 35.744 116.845 36.112L117.997 36.496C118.205 36.56 118.565 36.696 119.077 36.904C119.557 37.08 119.909 37.248 120.133 37.408C120.917 37.888 121.445 38.384 121.717 38.896C122.133 39.568 122.341 40.36 122.341 41.272C122.341 42.824 121.773 44.056 120.637 44.968C119.501 45.88 118.037 46.336 116.245 46.336ZM122.164 29.2H134.524V32.368H129.988V46H126.676V32.368H122.164V29.2ZM149.074 46H145.474L144.466 42.976H137.77L136.762 46H133.186L139.066 29.2H143.17L149.074 46ZM141.13 33.016L138.826 39.88H143.434L141.13 33.016ZM159.945 39.448V29.2H163.257V46H160.737L153.537 35.728V46H150.225V29.2H152.745L159.945 39.448Z" fill="#489743"/>
</svg>
