<svg width="65" height="64" viewBox="0 0 65 64" fill="none" xmlns="http://www.w3.org/2000/svg">
<path fill-rule="evenodd" clip-rule="evenodd" d="M18.666 20C18.1356 20 17.6269 20.2107 17.2518 20.5858C17.1054 20.7322 16.9841 20.8989 16.8905 21.0793L32.666 31.5963L48.4415 21.0793C48.3479 20.8989 48.2266 20.7322 48.0802 20.5858C47.7052 20.2107 47.1964 20 46.666 20H18.666ZM48.666 25.737L33.7754 35.6641C33.1036 36.112 32.2284 36.112 31.5566 35.6641L16.666 25.737V42C16.666 42.5304 16.8767 43.0391 17.2518 43.4142C17.6269 43.7893 18.1356 44 18.666 44H46.666C47.1964 44 47.7052 43.7893 48.0802 43.4142C48.4553 43.0391 48.666 42.5304 48.666 42V25.737ZM14.4234 17.7574C15.5486 16.6321 17.0747 16 18.666 16H46.666C48.2573 16 49.7834 16.6321 50.9087 17.7574C52.0339 18.8826 52.666 20.4087 52.666 22V42C52.666 43.5913 52.0339 45.1174 50.9087 46.2426C49.7834 47.3679 48.2573 48 46.666 48H18.666C17.0747 48 15.5486 47.3679 14.4234 46.2426C13.2982 45.1174 12.666 43.5913 12.666 42V22C12.666 20.4087 13.2982 18.8826 14.4234 17.7574Z" fill="#4A2B68"/>
</svg>
