<svg width="160" height="25" viewBox="0 0 160 25" fill="none" xmlns="http://www.w3.org/2000/svg">
<path d="M0.39 0.799999H13.65V3.66H8.528V19H5.538V3.66H0.39V0.799999ZM22.359 12.968V6H25.167V19H22.359V17.336C21.4923 18.6707 20.149 19.338 18.329 19.338C16.821 19.338 15.6077 18.8613 14.689 17.908C13.7877 16.9373 13.337 15.6287 13.337 13.982V6H16.145V13.696C16.145 14.6667 16.405 15.412 16.925 15.932C17.445 16.452 18.1557 16.712 19.057 16.712C20.0797 16.712 20.8857 16.4 21.475 15.776C22.0643 15.1347 22.359 14.1987 22.359 12.968ZM31.2585 6V8.184C31.9692 6.572 33.3038 5.766 35.2625 5.766V8.808C34.2052 8.73867 33.2692 8.99867 32.4545 9.588C31.6572 10.16 31.2585 11.1133 31.2585 12.448V19H28.4505V6H31.2585ZM42.9012 12.37L48.8292 19H45.4752L40.1452 12.994V19H37.3372V0.799999H40.1452V11.746L45.1892 6H48.6212L42.9012 12.37ZM64.9141 5.662C66.3874 5.662 67.5747 6.13867 68.4761 7.092C69.3774 8.04533 69.8281 9.328 69.8281 10.94V19H67.0201V11.122C67.0201 10.238 66.7947 9.54467 66.3441 9.042C65.8934 8.53933 65.2781 8.288 64.4981 8.288C63.6141 8.288 62.9207 8.58267 62.4181 9.172C61.9154 9.744 61.6641 10.5933 61.6641 11.72V19H58.8561V11.122C58.8561 10.2207 58.6394 9.52733 58.2061 9.042C57.7901 8.53933 57.1921 8.288 56.4121 8.288C55.5454 8.288 54.8434 8.58267 54.3061 9.172C53.7861 9.76133 53.5261 10.6107 53.5261 11.72V19H50.7181V6H53.5261V7.56C54.3581 6.29467 55.5974 5.662 57.2441 5.662C58.9081 5.662 60.1387 6.34667 60.9361 7.716C61.7854 6.34667 63.1114 5.662 64.9141 5.662ZM85.3913 13.696H75.0433C75.2513 14.6667 75.7193 15.4207 76.4473 15.958C77.1926 16.4953 78.1113 16.764 79.2033 16.764C80.6766 16.764 81.7946 16.2267 82.5573 15.152L84.8713 16.504C83.606 18.3933 81.708 19.338 79.1773 19.338C77.08 19.338 75.3726 18.6967 74.0553 17.414C72.7553 16.114 72.1053 14.476 72.1053 12.5C72.1053 10.576 72.7466 8.95533 74.0293 7.638C75.2946 6.32067 76.9413 5.662 78.9693 5.662C80.8586 5.662 82.4186 6.32933 83.6493 7.664C84.88 8.99867 85.4953 10.6193 85.4953 12.526C85.4953 12.8727 85.4606 13.2627 85.3913 13.696ZM75.0173 11.408H82.6613C82.4706 10.3853 82.0373 9.59667 81.3613 9.042C80.7026 8.48733 79.8966 8.21 78.9433 8.21C77.9033 8.21 77.0366 8.496 76.3433 9.068C75.65 9.64 75.208 10.42 75.0173 11.408ZM94.8041 5.662C96.3121 5.662 97.5168 6.14733 98.4181 7.118C99.3368 8.07133 99.7961 9.37133 99.7961 11.018V19H96.9881V11.304C96.9881 10.3333 96.7281 9.588 96.2081 9.068C95.6881 8.548 94.9775 8.288 94.0761 8.288C93.0535 8.288 92.2475 8.60867 91.6581 9.25C91.0688 9.874 90.7741 10.8013 90.7741 12.032V19H87.9661V6H90.7741V7.664C91.6408 6.32933 92.9841 5.662 94.8041 5.662ZM105.992 11.226V16.14H114.052V19H103.002V0.799999H113.922V3.66H105.992V8.392H113.272V11.226H105.992ZM123.367 12.344L128.229 19H124.979L121.755 14.554L118.505 19H115.229L120.117 12.318L115.489 6H118.739L121.729 10.108L124.719 6H127.995L123.367 12.344ZM137.473 5.662C139.241 5.662 140.766 6.32933 142.049 7.664C143.314 8.98133 143.947 10.5933 143.947 12.5C143.947 14.424 143.314 16.0447 142.049 17.362C140.783 18.6793 139.258 19.338 137.473 19.338C135.514 19.338 133.997 18.61 132.923 17.154V24.2H130.115V6H132.923V7.872C133.98 6.39867 135.497 5.662 137.473 5.662ZM134.093 15.49C134.873 16.27 135.852 16.66 137.031 16.66C138.209 16.66 139.189 16.27 139.969 15.49C140.749 14.6927 141.139 13.696 141.139 12.5C141.139 11.304 140.749 10.316 139.969 9.536C139.189 8.73867 138.209 8.34 137.031 8.34C135.852 8.34 134.873 8.73867 134.093 9.536C133.313 10.316 132.923 11.304 132.923 12.5C132.923 13.6787 133.313 14.6753 134.093 15.49ZM157.49 17.362C156.172 18.6793 154.552 19.338 152.628 19.338C150.704 19.338 149.083 18.6793 147.766 17.362C146.431 16.0273 145.764 14.4067 145.764 12.5C145.764 10.5933 146.431 8.97267 147.766 7.638C149.083 6.32067 150.704 5.662 152.628 5.662C154.552 5.662 156.172 6.32067 157.49 7.638C158.824 8.97267 159.492 10.5933 159.492 12.5C159.492 14.4067 158.824 16.0273 157.49 17.362ZM148.572 12.5C148.572 13.6787 148.962 14.658 149.742 15.438C150.522 16.218 151.484 16.608 152.628 16.608C153.772 16.608 154.734 16.218 155.514 15.438C156.294 14.658 156.684 13.6787 156.684 12.5C156.684 11.3213 156.294 10.342 155.514 9.562C154.734 8.782 153.772 8.392 152.628 8.392C151.484 8.392 150.522 8.782 149.742 9.562C148.962 10.342 148.572 11.3213 148.572 12.5Z" fill="white"/>
</svg>
