<svg width="24" height="24" viewBox="0 0 24 24" fill="none" xmlns="http://www.w3.org/2000/svg">
<g clip-path="url(#clip0_1_503)">
<path d="M0.75 12C0.75 14.2875 1.425 16.425 2.625 18.225V5.775C1.425 7.575 0.75 9.7125 0.75 12ZM12 0.75C9.9375 0.75 8.025 1.3125 6.375 2.25V21.75C8.025 22.725 9.9375 23.25 12 23.25C18.225 23.25 23.25 18.225 23.25 12C23.25 5.775 18.225 0.75 12 0.75Z" fill="#83BF4F"/>
<path d="M2.625 5.775V18.225C3.6 19.6875 4.875 20.8875 6.375 21.75V2.25C4.875 3.1125 3.6 4.35 2.625 5.775Z" fill="#ED4C5C"/>
<path d="M13.9496 3.29996C14.8871 4.08746 15.4496 5.28746 15.3746 6.59996C15.2621 8.84996 13.3496 10.6125 11.0996 10.5375C10.5746 10.5 10.0871 10.3875 9.67461 10.2C10.3871 10.8 11.3246 11.175 12.3371 11.175C14.6246 11.175 16.4621 9.33746 16.4621 7.04996C16.4246 5.39996 15.4121 3.93746 13.9496 3.29996ZM10.0121 6.33746L10.1996 5.77496H10.7621L10.3121 5.43746L10.4996 4.91246L10.0121 5.24996L9.56211 4.91246L9.74961 5.43746L9.26211 5.77496H9.82461L10.0121 6.33746ZM9.82461 3.67496L10.0121 4.23746L10.1996 3.67496H10.7621L10.3121 3.33746L10.4996 2.77496L10.0121 3.11246L9.56211 2.77496L9.74961 3.33746L9.26211 3.67496H9.82461ZM11.9246 4.76246L12.1121 5.32496L12.2996 4.76246H12.8621L12.4121 4.42496L12.5621 3.86246L12.1121 4.19996L11.6246 3.86246L11.8121 4.42496L11.3621 4.76246H11.9246ZM8.21211 6.48746L8.39961 5.92496L7.91211 6.26246L7.46211 5.92496L7.64961 6.48746L7.16211 6.82496H7.76211L7.91211 7.38746L8.09961 6.82496H8.69961L8.21211 6.48746ZM10.0121 8.43746L10.1996 7.91246H10.7621L10.3121 7.57496L10.4996 7.01246L10.0121 7.34996L9.56211 7.01246L9.74961 7.57496L9.26211 7.91246H9.82461L10.0121 8.43746Z" fill="white"/>
<path d="M2.625 5.77496V8.02496L3.75 6.89996L2.625 5.77496ZM6.375 8.02496V5.77496L5.25 6.89996L6.375 8.02496ZM2.625 11.2125V13.425L3.75 12.3375L2.625 11.2125ZM6.375 13.425V11.2125L5.25 12.3375L6.375 13.425ZM2.625 15.975V18.225L3.75 17.1L2.625 15.975ZM6.375 18.225V15.975L5.25 17.1L6.375 18.225Z" fill="#FFE62E"/>
<path d="M3.675 15.975L2.8125 14.7L3.675 13.4625H5.325L6.1875 14.7L5.325 15.975H3.675Z" fill="#83BF4F"/>
<path d="M3.675 10.8001L2.8125 9.56257L3.675 8.32507H5.325L6.1875 9.56257L5.325 10.8001H3.675Z" fill="#FFE62E"/>
<path d="M3.9002 10.4625L3.2627 9.56254L3.9002 8.66254H5.1002L5.7377 9.56254L5.1002 10.4625H3.9002Z" fill="#ED4C5C"/>
<path d="M4.2377 9.9375L4.0127 9.5625L4.2377 9.1875H4.7627L4.9877 9.5625L4.7627 9.9375H4.2377Z" fill="white"/>
<path d="M3.45 5.47493L3.1875 5.06243L5.25 3.11243L6 4.23743L5.175 5.47493H3.45Z" fill="#83BF4F"/>
<path d="M3.71211 5.13743L3.41211 4.72493L4.91211 3.29993L5.54961 4.23743L4.91211 5.13743H3.71211Z" fill="#ED4C5C"/>
<path d="M3.3748 18.375L3.1123 18.7875L5.1373 20.7375L5.8873 19.65L5.0623 18.4125L3.3748 18.375Z" fill="#FFE62E"/>
<path d="M3.6002 18.7124L3.3377 19.1249L4.8002 20.5499L5.4377 19.6499L4.8377 18.7499L3.6002 18.7124ZM3.9002 15.5999L3.2627 14.6999L3.9002 13.7999H5.1002L5.7377 14.6999L5.1002 15.5999H3.9002Z" fill="#ED4C5C"/>
<path d="M4.2375 15.075L3.975 14.7L4.2375 14.325H4.725L4.9875 14.7L4.725 15.075H4.2375ZM4.0875 4.46246L3.9375 4.23746L4.5 3.71246L4.8 4.08746L4.575 4.46246H4.0875Z" fill="#FFE62E"/>
<path d="M3.9 19.3876L3.75 19.6126L4.35 20.1751L4.65 19.7626L4.3875 19.3876H3.9Z" fill="white"/>
</g>
<defs>
<clipPath id="clip0_1_503">
<rect width="24" height="24" fill="white"/>
</clipPath>
</defs>
</svg>
