<svg width="80" height="80" viewBox="0 0 80 80" fill="none" xmlns="http://www.w3.org/2000/svg">
<path fill-rule="evenodd" clip-rule="evenodd" d="M45.6683 26.666V27.666H46.6683H64.6683V59.9993C64.6683 63.1986 64.664 65.3968 64.4421 67.048C64.2278 68.6416 63.8442 69.4231 63.3015 69.9658C62.7587 70.5086 61.9773 70.8922 60.3836 71.1064C58.7324 71.3284 56.5342 71.3327 53.335 71.3327H26.6683C23.469 71.3327 21.2708 71.3284 19.6196 71.1064C18.026 70.8922 17.2446 70.5086 16.7018 69.9658C16.159 69.4231 15.7755 68.6416 15.5612 67.048C15.3392 65.3968 15.335 63.1986 15.335 59.9993V56.666H13.335V59.9993C13.335 66.2847 13.335 69.4274 15.2876 71.3801C17.2402 73.3327 20.3829 73.3327 26.6683 73.3327H53.335C59.6204 73.3327 62.7631 73.3327 64.7157 71.3801C66.6683 69.4274 66.6683 66.2847 66.6683 59.9993V27.666V26.666L65.6683 25.666L47.6683 7.66602L46.6683 6.66602H45.6683H26.6683C20.3829 6.66602 17.2402 6.66602 15.2876 8.61864C13.335 10.5713 13.335 13.714 13.335 19.9993V36.666H15.335V19.9993C15.335 16.8001 15.3392 14.6019 15.5612 12.9507C15.7755 11.357 16.159 10.5756 16.7018 10.0329C17.2446 9.49008 18.026 9.10652 19.6196 8.89226C21.2708 8.67026 23.4691 8.66602 26.6683 8.66602H45.6683V26.666ZM47.6683 10.4944L62.8399 25.666H47.6683V10.4944Z" fill="#61378A"/>
<rect width="30" height="16" transform="translate(7 38)" fill="#D7C1ED"/>
<path d="M29.3291 42.418V49.5273H27.6152V42.418H29.3291ZM32.0928 45.377V46.6953H28.8408V45.377H32.0928ZM32.3711 42.418V43.7412H28.8408V42.418H32.3711Z" fill="#61378A"/>
<path d="M23.4502 49.5273H21.873L21.8828 48.209H23.4502C23.7757 48.209 24.0508 48.1309 24.2754 47.9746C24.5033 47.8184 24.6758 47.5856 24.793 47.2764C24.9134 46.9639 24.9736 46.5798 24.9736 46.124V45.8164C24.9736 45.4746 24.9395 45.1751 24.8711 44.918C24.806 44.6576 24.7083 44.4411 24.5781 44.2686C24.4479 44.0928 24.2852 43.9609 24.0898 43.873C23.8978 43.7852 23.6764 43.7412 23.4258 43.7412H21.8438V42.418H23.4258C23.9076 42.418 24.3486 42.501 24.749 42.667C25.1527 42.8298 25.501 43.0641 25.7939 43.3701C26.0902 43.6729 26.318 44.0326 26.4775 44.4492C26.6403 44.8626 26.7217 45.3216 26.7217 45.8262V46.124C26.7217 46.6253 26.6403 47.0843 26.4775 47.501C26.318 47.9176 26.0918 48.2773 25.7988 48.5801C25.5059 48.8828 25.1592 49.1172 24.7588 49.2832C24.3617 49.446 23.9255 49.5273 23.4502 49.5273ZM22.8545 42.418V49.5273H21.1406V42.418H22.8545Z" fill="#61378A"/>
<path d="M17.4639 47.1152H15.6963V45.792H17.4639C17.7048 45.792 17.9001 45.7513 18.0498 45.6699C18.1995 45.5885 18.3086 45.4762 18.377 45.333C18.4486 45.1865 18.4844 45.0221 18.4844 44.8398C18.4844 44.6445 18.4486 44.4639 18.377 44.2979C18.3086 44.1318 18.1995 43.9984 18.0498 43.8975C17.9001 43.7933 17.7048 43.7412 17.4639 43.7412H16.3408V49.5273H14.627V42.418H17.4639C18.0335 42.418 18.5234 42.5221 18.9336 42.7305C19.347 42.9388 19.6644 43.2253 19.8857 43.5898C20.1071 43.9512 20.2178 44.3646 20.2178 44.8301C20.2178 45.2891 20.1071 45.6895 19.8857 46.0312C19.6644 46.373 19.347 46.64 18.9336 46.832C18.5234 47.0208 18.0335 47.1152 17.4639 47.1152Z" fill="#61378A"/>
<path d="M11.6289 48.7549C11.6289 48.5205 11.7135 48.3252 11.8828 48.1689C12.0521 48.0094 12.2702 47.9297 12.5371 47.9297C12.8073 47.9297 13.0254 48.0094 13.1914 48.1689C13.3607 48.3252 13.4453 48.5205 13.4453 48.7549C13.4453 48.9893 13.3607 49.1862 13.1914 49.3457C13.0254 49.502 12.8073 49.5801 12.5371 49.5801C12.2702 49.5801 12.0521 49.502 11.8828 49.3457C11.7135 49.1862 11.6289 48.9893 11.6289 48.7549Z" fill="#61378A"/>
</svg>
