<svg width="32" height="32" viewBox="0 0 32 32" fill="none" xmlns="http://www.w3.org/2000/svg">
<path d="M16.0006 12L10.6673 17.3334L21.334 17.3334L16.0006 12ZM16.0006 2.66671C17.8451 2.66671 19.5784 3.01693 21.2006 3.71737C22.8229 4.41782 24.234 5.36759 25.434 6.56671C26.634 7.76671 27.5838 9.17782 28.2833 10.8C28.9829 12.4223 29.3331 14.1556 29.334 16C29.334 17.8445 28.9838 19.5778 28.2833 21.2C27.5829 22.8223 26.6331 24.2334 25.434 25.4334C24.234 26.6334 22.8229 27.5832 21.2007 28.2827C19.5784 28.9823 17.8451 29.3325 16.0007 29.3334C14.1562 29.3334 12.4229 28.9832 10.8007 28.2827C9.17843 27.5823 7.76732 26.6325 6.56732 25.4334C5.36732 24.2334 4.4171 22.8223 3.71665 21.2C3.01621 19.5778 2.66643 17.8445 2.66732 16C2.66732 14.1556 3.01754 12.4223 3.71798 10.8C4.41843 9.17782 5.3682 7.76671 6.56731 6.56671C7.76731 5.36671 9.17843 4.41649 10.8006 3.71604C12.4229 3.0156 14.1562 2.66582 16.0006 2.66671ZM16.0006 5.33337C13.0229 5.33337 10.5006 6.36671 8.43398 8.43338C6.36732 10.5 5.33398 13.0223 5.33398 16C5.33398 18.9778 6.36732 21.5 8.43398 23.5667C10.5007 25.6334 13.0229 26.6667 16.0007 26.6667C18.9784 26.6667 21.5007 25.6334 23.5673 23.5667C25.634 21.5 26.6673 18.9778 26.6673 16C26.6673 13.0223 25.634 10.5 23.5673 8.43337C21.5006 6.36671 18.9784 5.33337 16.0006 5.33337Z" fill="#61378A"/>
</svg>
