<svg width="40" height="40" viewBox="0 0 40 40" fill="none" xmlns="http://www.w3.org/2000/svg">
<path d="M31.6654 15C31.6654 13.468 31.3636 11.9509 30.7773 10.5354C30.191 9.11994 29.3316 7.83381 28.2483 6.75046C27.1649 5.66711 25.8788 4.80775 24.4633 4.22145C23.0479 3.63514 21.5308 3.33337 19.9987 3.33337C18.4666 3.33337 16.9495 3.63514 15.5341 4.22145C14.1186 4.80775 12.8325 5.66711 11.7491 6.75046C10.6658 7.83381 9.80641 9.11994 9.2201 10.5354C8.6338 11.9509 8.33203 13.468 8.33203 15C8.33203 17.3117 9.0137 19.4617 10.1737 21.275H10.1604L19.9987 36.6667L29.837 21.275H29.8254C31.0268 19.4027 31.6655 17.2247 31.6654 15ZM19.9987 20C18.6726 20 17.4008 19.4733 16.4632 18.5356C15.5255 17.5979 14.9987 16.3261 14.9987 15C14.9987 13.674 15.5255 12.4022 16.4632 11.4645C17.4008 10.5268 18.6726 10 19.9987 10C21.3248 10 22.5966 10.5268 23.5342 11.4645C24.4719 12.4022 24.9987 13.674 24.9987 15C24.9987 16.3261 24.4719 17.5979 23.5342 18.5356C22.5966 19.4733 21.3248 20 19.9987 20Z" fill="#ED5417"/>
</svg>
