<svg width="40" height="40" viewBox="0 0 40 40" fill="none" xmlns="http://www.w3.org/2000/svg">
<path d="M19.9987 33.3334C23.5349 33.3334 26.9263 31.9286 29.4268 29.4281C31.9273 26.9276 33.332 23.5363 33.332 20C33.332 16.4638 31.9273 13.0724 29.4268 10.572C26.9263 8.07147 23.5349 6.66671 19.9987 6.66671C16.4625 6.66671 13.0711 8.07147 10.5706 10.572C8.07012 13.0724 6.66536 16.4638 6.66536 20C6.66536 23.5363 8.07012 26.9276 10.5706 29.4281C13.0711 31.9286 16.4625 33.3334 19.9987 33.3334ZM19.9987 3.33337C22.1874 3.33337 24.3547 3.76447 26.3768 4.60205C28.3989 5.43963 30.2362 6.66728 31.7838 8.21493C33.3315 9.76257 34.5591 11.5999 35.3967 13.622C36.2343 15.6441 36.6654 17.8113 36.6654 20C36.6654 24.4203 34.9094 28.6595 31.7838 31.7852C28.6582 34.9108 24.419 36.6667 19.9987 36.6667C10.782 36.6667 3.33203 29.1667 3.33203 20C3.33203 15.5798 5.08798 11.3405 8.21359 8.21493C11.3392 5.08932 15.5784 3.33337 19.9987 3.33337ZM20.832 11.6667V20.4167L28.332 24.8667L27.082 26.9167L18.332 21.6667V11.6667H20.832Z" fill="#ED5417"/>
</svg>
